<svg xmlns="http://www.w3.org/2000/svg" viewBox="0 0 120 180" width="120" height="180">
  <!-- Base superior ornamentada -->
  <rect x="5" y="5" width="110" height="12" rx="3" fill="white"/>
  <rect x="10" y="17" width="100" height="6" rx="2" fill="white"/>
  
  <!-- Capitel elaborado -->
  <ellipse cx="60" cy="30" rx="45" ry="10" fill="white"/>
  <ellipse cx="60" cy="32" rx="42" ry="8" fill="none" stroke="#0E4D92" stroke-width="1"/>
  
  <!-- Volutas izquierda detalladas -->
  <circle cx="20" cy="30" r="12" fill="none" stroke="white" stroke-width="4"/>
  <circle cx="20" cy="30" r="8" fill="none" stroke="white" stroke-width="3"/>
  <circle cx="20" cy="30" r="5" fill="white"/>
  <path d="M 8 30 Q 14 24 20 30" stroke="white" stroke-width="3" fill="none"/>
  
  <!-- Volutas derecha detalladas -->
  <circle cx="100" cy="30" r="12" fill="none" stroke="white" stroke-width="4"/>
  <circle cx="100" cy="30" r="8" fill="none" stroke="white" stroke-width="3"/>
  <circle cx="100" cy="30" r="5" fill="white"/>
  <path d="M 112 30 Q 106 24 100 30" stroke="white" stroke-width="3" fill="none"/>
  
  <!-- Echinus (moldura del capitel) -->
  <ellipse cx="60" cy="42" rx="40" ry="6" fill="white"/>
  
  <!-- Fuste principal con ligero entasis -->
  <path d="M 30 48 Q 60 50 90 48 L 88 140 Q 60 142 32 140 Z" fill="white"/>
  
  <!-- Estrías detalladas -->
  <path d="M 38 48 Q 38 50 38 140" stroke="#0E4D92" stroke-width="2" fill="none"/>
  <path d="M 46 48 Q 46 50 46 140" stroke="#0E4D92" stroke-width="2" fill="none"/>
  <path d="M 54 48 Q 54 50 54 140" stroke="#0E4D92" stroke-width="2" fill="none"/>
  <path d="M 62 48 Q 62 50 62 140" stroke="#0E4D92" stroke-width="2" fill="none"/>
  <path d="M 70 48 Q 70 50 70 140" stroke="#0E4D92" stroke-width="2" fill="none"/>
  <path d="M 78 48 Q 78 50 78 140" stroke="#0E4D92" stroke-width="2" fill="none"/>
  <path d="M 86 48 Q 86 50 86 140" stroke="#0E4D92" stroke-width="2" fill="none"/>
  
  <!-- Base escalonada -->
  <rect x="25" y="140" width="70" height="15" fill="white"/>
  <rect x="20" y="155" width="80" height="10" fill="white"/>
  <rect x="15" y="165" width="90" height="10" fill="white"/>
  
  <!-- Sombras sutiles para profundidad -->
  <rect x="32" y="48" width="2" height="92" fill="rgba(14,77,146,0.1)"/>
  <rect x="88" y="48" width="2" height="92" fill="rgba(14,77,146,0.1)"/>
</svg>